<?xml version="1.0" standalone="no"?><!DOCTYPE svg PUBLIC "-//W3C//DTD SVG 1.1//EN" "http://www.w3.org/Graphics/SVG/1.1/DTD/svg11.dtd"><svg t="1587719484318" class="icon" viewBox="0 0 1024 1024" version="1.1" xmlns="http://www.w3.org/2000/svg" p-id="1140" xmlns:xlink="http://www.w3.org/1999/xlink" width="200" height="200"><defs><style type="text/css"></style></defs><path d="M241.796129 862.802581c3.963871-236.510968 96.454194-317.770323 282.756129-321.734194 105.042581 0 178.374194 29.729032 224.619355 92.490323 7.927742 10.570323 22.461935 12.552258 33.032258 5.285161 10.570323-7.927742 12.552258-22.461935 5.285161-33.032258-57.476129-77.956129-149.966452-112.309677-262.936774-111.649032-205.460645 0.660645-330.322581 118.916129-330.322581 369.300645 0 13.212903 10.570323 23.783226 23.783226 23.783226 13.212903-0.660645 23.783226-11.230968 23.783226-24.443871z" p-id="1141"></path><path d="M539.747097 802.683871c4.624516 0.660645 72.670968 79.938065 128.165161 86.544516 56.815484-7.267097 216.030968-147.323871 221.976774-148.645161 9.909677-8.588387 11.891613-23.122581 3.303226-33.692903-8.588387-9.909677-23.122581-11.891613-33.692903-3.303226 0 1.981935-186.301935 144.020645-191.587097 137.414193-5.945806 5.945806-93.811613-72.670968-94.472258-72.670967-9.249032-9.249032-24.443871-9.249032-33.692903 0-9.909677 9.909677-9.249032 25.104516 0 34.353548z" p-id="1142"></path><path d="M521.909677 161.858065l6.606452 23.783225c70.028387 0 126.843871 56.815484 126.843871 127.504516 0 70.028387-56.815484 126.843871-126.843871 127.504517-70.028387 0-126.843871-56.815484-126.843871-127.504517 0-70.028387 56.815484-126.843871 126.843871-127.504516l6.606452-23.783225-6.606452-23.783226c-96.454194 0-175.070968 78.616774-175.070968 175.070967C354.105806 409.6 432.061935 487.556129 528.516129 487.556129s175.070968-78.616774 175.070968-175.070968S625.630968 137.414194 528.516129 137.414194v23.783225h-6.606452z" p-id="1143"></path></svg>