<?xml version="1.0" standalone="no"?><!DOCTYPE svg PUBLIC "-//W3C//DTD SVG 1.1//EN" "http://www.w3.org/Graphics/SVG/1.1/DTD/svg11.dtd"><svg t="1587888854195" class="icon" viewBox="0 0 1243 1024" version="1.1" xmlns="http://www.w3.org/2000/svg" p-id="3034" xmlns:xlink="http://www.w3.org/1999/xlink" width="242.7734375" height="200"><defs><style type="text/css"></style></defs><path d="M550.649519 951.474735a72.523552 72.523552 0 1 0 72.523552-72.523552 72.523552 72.523552 0 0 0-72.523552 72.523552z m314.078374-272.391607a342.630953 342.630953 0 0 0-484.251747 0 47.968333 47.968333 0 1 0 67.955139 67.955139 246.123234 246.123234 0 0 1 348.341469 0l3.426309 3.997361a47.968333 47.968333 0 1 0 67.955139-67.955139zM197.739638 458.086163a47.968333 47.968333 0 1 0 67.955139 69.097242 503.096449 503.096449 0 0 1 711.530279 0A47.968333 47.968333 0 1 0 1045.751246 458.086163 599.604168 599.604168 0 0 0 197.739638 458.086163z m1027.892858-207.291727a856.577382 856.577382 0 0 0-1211.200418 0 47.968333 47.968333 0 0 0 69.668294 69.668294 760.069664 760.069664 0 0 1 1075.29014 0 47.968333 47.968333 0 1 0 67.955139-67.955139z" fill="#bfbfbf" p-id="3035"></path></svg>