<?xml version="1.0" standalone="no"?><!DOCTYPE svg PUBLIC "-//W3C//DTD SVG 1.1//EN" "http://www.w3.org/Graphics/SVG/1.1/DTD/svg11.dtd"><svg t="1587724310037" class="icon" viewBox="0 0 1024 1024" version="1.1" xmlns="http://www.w3.org/2000/svg" p-id="1267" xmlns:xlink="http://www.w3.org/1999/xlink" width="200" height="200"><defs><style type="text/css"></style></defs><path d="M509.125 567.566l58.428-58.428L897.825 839.41l-58.428 58.428z" p-id="1268" fill="#ffffff"></path><path d="M393.29 208.08c49.59 0 96.22 19.31 131.29 54.38 35.07 35.07 54.38 81.69 54.38 131.29s-19.31 96.22-54.38 131.29c-35.07 35.07-81.69 54.38-131.29 54.38-49.59 0-96.22-19.31-131.29-54.38s-54.38-81.69-54.38-131.29 19.31-96.22 54.38-131.29c35.08-35.07 81.7-54.38 131.29-54.38m0-82.63c-68.66 0-137.32 26.19-189.71 78.58-104.77 104.77-104.77 274.64 0 379.42 52.39 52.39 121.05 78.58 189.71 78.58S530.62 635.84 583 583.45c104.77-104.77 104.77-274.64 0-379.42-52.38-52.38-121.04-78.58-189.71-78.58z" p-id="1269" fill="#ffffff"></path></svg>